# xmcd
#
# Track frame offsets: 
#        150
#        10199
#        20674
#        31439
#        44022
#        63942
#        75060
#        88574
#        98477
#        111773
#        126027
#        139752
#        153769
#        169964
#        182624
#        195308
#        208174
#        220171
#        234630
#        249491
#        261914
#        275020
#        288208
#        301846
#        315796
#
# Disc length: 4399 seconds
#
# Revision: 0
# Processed by: cddbd v1.5.2PL0 Copyright (c) Steve Scherf et al.
# Submitted via: ExactAudioCopyFreeDBPlugin 1.0
#
DISCID=49112d19
DTITLE=Various Artist - Essential Alabama Blues [CD 2)
DYEAR=2013
DGENRE=Blues
TTITLE0=Big Mama Thornton - Hard Times
TTITLE1=Ralph Willis - Gonna Hop on Down the Line
TTITLE2=Dan Pickett - Drivin' That Thing
TTITLE3=Big Mama Thornton - Cotton Picking Blues
TTITLE4=Ralph Willis - Sweet Man Blues
TTITLE5=Dan Pickett - Early One Morning
TTITLE6=Ralph Willis - Goodbye Blues
TTITLE7=Horace Sprott - Take This Hammer
TTITLE8=Paul Bascomb - Leap Frog Blues
TTITLE9=Lucky Millinder - D Natural Blues
TTITLE10=Ed Bell - Bad Boy
TTITLE11=Walter Roland - Back Door Blues
TTITLE12=Daddy Stovepipe with Mississippi Sarah - Greenville Strut
TTITLE13=Daddy Lucille Bogan - Jump Steady
TTITLE14=Clifford Gibson - Ice and Snow Blues
TTITLE15=Edward Thompson - Florida Bound
TTITLE16=Ben Covington - Adam and Eve in the Garden
TTITLE17=Jaybird Coleman - Giving It Away
TTITLE18=Clifford Gibson - Bad Luck Dice
TTITLE19=Ed Bell - Big Rock Jail
TTITLE20=Lucille Bogan - Till the Cows Come Home
TTITLE21=Frankie 'Half Pint' Jaxon - Jive Man Blues
TTITLE22=Walter Roland - T Model Blues
TTITLE23=Cow Cow Davenport - Jim Crow Blues
TTITLE24=W.C. Handy Orchestra - St. Louis Blues
EXTD=
EXTT0=
EXTT1=
EXTT2=
EXTT3=
EXTT4=
EXTT5=
EXTT6=
EXTT7=
EXTT8=
EXTT9=
EXTT10=
EXTT11=
EXTT12=
EXTT13=
EXTT14=
EXTT15=
EXTT16=
EXTT17=
EXTT18=
EXTT19=
EXTT20=
EXTT21=
EXTT22=
EXTT23=
EXTT24=
PLAYORDER=
